<?xml version="1.0" encoding="utf-8"?>
<!-- Generator: Adobe Illustrator 21.0.0, SVG Export Plug-In . SVG Version: 6.00 Build 0)  -->
<svg version="1.1" id="Layer_1" xmlns="http://www.w3.org/2000/svg" xmlns:xlink="http://www.w3.org/1999/xlink" x="0px" y="0px"
	 viewBox="0 0 36 36" style="enable-background:new 0 0 36 36;" xml:space="preserve">
<g>
	<path d="M32.2,20c-0.8,4.3-3.2,7.8-6.6,10c-0.5,0.3-1.2,0.2-1.5-0.4l-1.3-2.8c-0.2-0.4-0.1-1,0.3-1.2c2.1-1.5,3.6-3.7,4.1-6.5
		c0.3-1.5,0.2-2.9-0.2-4.3c-0.1-0.5,0.1-0.9,0.5-1.1l2.7-1.3c0.6-0.3,1.2,0,1.4,0.6C32.5,15.2,32.6,17.6,32.2,20z M2.7,14.8
		c0.8-4.3,3.2-7.8,6.6-10c0.5-0.3,1.2-0.2,1.5,0.4L12,8c0.2,0.4,0.1,1-0.3,1.2c-2.1,1.5-3.6,3.7-4.1,6.5c-0.3,1.5-0.2,2.9,0.2,4.3
		c0.1,0.5-0.1,0.9-0.5,1.1l-2.7,1.3c-0.6,0.3-1.2,0-1.4-0.6C2.4,19.6,2.2,17.2,2.7,14.8z M21.7,31.8c-2.2,0.7-4.5,0.9-6.9,0.4
		c-0.1,0-0.1,0-0.2,0c-0.2,0.5-1.3,2.7-3.1,3.3C11,35.7,10,35.7,9,35c-4.9-3.6-3.4-7.9-3.3-8.2c-0.3-0.4-0.5-0.7-0.8-1.1
		c-0.3-0.5-0.1-1.2,0.4-1.5l2.8-1.3c0.4-0.2,0.9-0.1,1.2,0.3c1.5,2.1,3.7,3.6,6.4,4.1c1.5,0.3,2.9,0.2,4.3-0.2
		c0.5-0.1,0.9,0.1,1.1,0.6l1.3,2.8C22.6,31,22.3,31.6,21.7,31.8z M7.4,28.9c0.1,1.1,0.6,2.8,2.8,4.4c0.3,0.2,0.5,0.3,0.7,0.3
		c0.1,0,0.1,0,0.2,0c0.5-0.2,1-0.8,1.4-1.4L7.4,28.9z M26.8,11.9c-0.4,0.2-0.9,0.1-1.2-0.3c-1.5-2.1-3.7-3.6-6.4-4.1
		c-1.5-0.3-2.9-0.2-4.3,0.2c-0.5,0.1-0.9-0.1-1.1-0.6l-1.3-2.8c-0.3-0.6,0-1.2,0.6-1.4c2.2-0.7,4.5-0.9,6.9-0.4
		c0.2,0,0.3,0.1,0.5,0.1c0.5-0.8,1.3-1.8,2.5-2.1c0.6-0.2,1.5-0.2,2.6,0.5c3.6,2.6,3.8,5.4,3.6,7c0.3,0.4,0.5,0.7,0.8,1.1
		c0.3,0.5,0.1,1.2-0.4,1.5L26.8,11.9z M24.4,2.7c-0.3-0.2-0.5-0.3-0.7-0.3c-0.1,0-0.1,0-0.2,0c-0.3,0.1-0.7,0.4-1,0.8
		c1.6,0.6,3.1,1.4,4.3,2.5C26.6,4.7,25.8,3.7,24.4,2.7z"/>
</g>
</svg>
