<?xml version="1.0" encoding="utf-8"?>
<!-- Generator: Adobe Illustrator 21.0.0, SVG Export Plug-In . SVG Version: 6.00 Build 0)  -->
<svg version="1.1" id="Layer_1" xmlns="http://www.w3.org/2000/svg" xmlns:xlink="http://www.w3.org/1999/xlink" x="0px" y="0px"
	 viewBox="0 0 186.5 69.6" style="enable-background:new 0 0 186.5 69.6;" xml:space="preserve">
<style type="text/css">
	.st0{fill:#FFFFFF;}
	.st1{fill:#333D85;}
</style>
<path class="st0" d="M187.9,53.3c0.3,0.6,0,1.4-0.6,1.5c-1.4,0.1-2.9,0.1-4.3,0c-0.3,0-0.9-0.8-0.9-1.2c0.2-2.2-1.3-4.1-1.1-6.3
	c0-0.2,0.1-0.6-0.1-0.7c-1-0.8,0.2-2.1-0.9-2.9c-0.2-0.2,0-0.9-0.6-0.7c-0.4,0.1-0.8,0.6-0.9,1c-0.2,0.3,0,0.8,0,1.2
	c0,3.1,0,6.3,0,9.6c-0.9,0-1.8,0.1-2.6,0.1c-0.9,0-1.8,0-3,0c0.3-2.1-0.4-4,0.5-6c0.2-0.5,0-1.1,0-1.7c0-6.3,0-12.5,0-19.1
	c2.7,0,5.2-0.1,7.7,0c2.4,0.1,4.3,1.3,5.8,3c0.4,0.5-0.1,1.4,0.7,1.7c-0.2,2.1,0.4,4.2-0.4,6.3c-0.2,0.5-0.4,1-0.8,1.4
	c-0.8,0.7-1.6,1.5-2.3,2.1c0.9,2.6,1.8,5,2.5,7.4C187,51,187.3,52.2,187.9,53.3z M181.4,32c-0.5-0.6-1.1-0.9-1.7-0.4
	c-0.5,0.4-1.5,0.3-1.2,1.5c0.2,0.6,0,1.3,0,2c0,0.9-0.1,1.8,0,2.7c0,0.3,0.3,0.9,0.6,1c0.7,0.2,1.5,0.3,2.2,0.2
	c0.5-0.1,0.9-0.7,0.8-1.4c0-0.2,0.2-0.4,0.3-0.6C182.9,35.1,182.6,33.4,181.4,32z M166.7,55.2c-0.8-0.1-1.2-0.8-1.2-1.7
	c0-0.3,0-0.7,0-1c0-1.8-0.5-2.2-2.3-2.2c-0.8,0-1.9-0.3-2.3,0.9c-0.2,0.7-0.4,1.3-0.5,2c-0.3,1.5-0.9,2-2.4,2.1c-0.7,0-1.3,0-2,0
	c-0.8-0.1-1.3-0.8-1.1-1.6c0.3-1.1,0.7-2.2,1.1-3.3c0.1-0.4,0.4-0.7,0.4-1.1c-0.1-1.3,0.6-2.4,0.8-3.6c0.4-1.7,0.7-3.3,1.2-5
	c0.3-1.1,0-2.6,0.6-3.4c0.7-1-0.2-2.4,0.9-3.1c-0.3-1.2,0.5-2.3,0.5-3.5c0-0.7,0.2-1.4,0.6-2c0.2-0.3,0.8-0.6,1.2-0.7
	c0.8-0.1,1.7,0,2.5,0c0.8,0,1.1,0.5,1.2,1.2c0.3,2.2,0.5,4.5,1.5,6.6c-0.4,2.4,1.2,4.4,1,6.8c0,0.5,0.4,1,0.5,1.5c0.2,1,0.3,2,0.5,3
	c0.2,1,0.2,2.1,0.6,3c0.4,1,0.4,2,0.5,3c0,0.3,0.3,0.5,0.4,0.8c0.2,0.4,0.1,0.6-0.4,0.9C169.2,55.5,167.9,55.2,166.7,55.2z
	 M163.9,38.9c-0.1-0.3-0.4-0.6-0.7-0.9c-0.3,0.3-0.7,0.7-0.8,1.1c-0.1,0.5,0,1.2,0,1.7c-0.2,1.4-0.5,2.8-0.7,4.1
	c-0.1,0.4-0.3,1.2-0.1,1.3c0.6,0.4,1.3,0.6,2,0.6c0.3,0,0.8-0.6,0.9-0.9c0.1-0.7,0-1.5,0-2.2c0,0,0.1,0,0.1,0
	C164.3,42,164.2,40.4,163.9,38.9z M154.9,31.9c-0.4,0.1-0.8,0-1.3,0c-1.6,0.1-2.2,0.8-2.4,2.4c-0.1,0.8,0.5,1.4,0.3,2.1
	c-0.2,0.7-0.2,1.6-0.2,2.4c0,4.5,0,9.1,0,13.6c0,0.4,0,0.8,0,1.2c0,1.1-0.4,1.5-1.4,1.5c-1.2,0-2.3,0-3.6,0c0-1.5,0-2.9,0-4.2
	c0-5,0-10.1,0-15.1c0-0.6-0.1-1.2,0-1.7c0.1-0.4,0.8-0.7,0.3-1.2c-0.5-0.5-0.9-1.2-1.8-1.1c-0.6,0.1-1.2,0-2,0c0-1.2,0-2.3,0-3.5
	c2.6,0,5.2,0,7.8,0c0.9,0,1.7,0.1,2.6-0.4c0.7-0.4,1.8-0.1,2.4,0.8c0.3,0.5,0.5,2,0.1,2.5C155.5,31.6,155.2,31.8,154.9,31.9z
	 M140.4,35.9c-1,0.2-2.1-0.2-3.1,0.5c-0.4,0.3-1-0.5-1.1-1.3c0-0.9,0.1-1.9-0.5-2.8c-0.7-1-1.5-1.2-2.3-0.3
	c-0.8,0.9-1.9,1.9-0.7,3.3c-0.1,1.4,0.8,2.2,1.7,3c1.2,1.2,2.5,2.5,3.7,3.7c2.5,2.4,3.4,5.3,3.1,8.6c-0.2,2.2-1.7,3.8-3.7,4.6
	c-3.7,1.4-6.7,0.3-8.9-2.2c-0.9-1-1.2-2.3-1.4-3.6c-0.2-0.9,0.3-1.4,1.1-1.5c0.8-0.1,1.5-0.1,2.3-0.4c1.3-0.5,2,0.2,2.1,1.5
	c0,0.5,0,1,0,1.5c0.1,1,1,1.9,1.8,1.9c0.7-0.1,1.6-1,1.7-1.8c0.2-1.9-0.6-3.4-1.8-4.7c-1.6-1.6-3.2-3.2-4.8-4.7
	c-1.7-1.7-2.3-3.9-2.4-6.2c0-1.1,0.2-2.3,0.9-3.3c0.8-1,1.7-2,2.6-2.9c0.1-0.1,0.5-0.1,0.7-0.2c1-0.6,2.2-0.5,3.4-0.5
	c2.9-0.6,4.3,1.5,5.9,3.4c0.9,1.1,0.5,2.5,0.5,3.7C141.2,35.4,140.7,35.8,140.4,35.9z M41.4,55c-0.4,0.8-0.7,1.6-1.3,2.2
	c-0.8,0.9-1.9,1.5-3,2c-0.6,0.2-1.1,0.2-1.7,0.2c-0.2,0-0.4-0.1-0.4,0.2c-0.3,0-0.6,0-0.9,0c-0.1-0.1-0.2-0.2-0.3-0.2
	c-0.3,0-0.6,0-0.8,0c0,0.1,0,0.3,0,0.4c-0.1,0-0.2,0-0.2,0.1c-0.1,1-0.3,2.4-0.9,3.2c-0.5,0.7-1.1,1.7-1.8,2.2
	c-0.5,0.4-3.4,1.8-4,1.8c-1.6,0.1-1.9,0.2-3,0.4c-0.3,0.1-0.5,0.3-0.8,0.4c-0.6,0.4-1.2,0.9-1.2,1.8c-0.1,0-0.1,0-0.2,0
	c-0.1-0.3-0.1-0.6-0.3-0.8c-0.6-0.7-1.3-1.2-2-1.6c-0.6-0.1-1.1-0.2-2.3-0.2c-0.6-0.1-3.5-1.4-4-1.8c-0.7-0.5-1.3-1.5-1.8-2.2
	c-0.6-0.8-0.8-2.1-0.9-3.2c0,0-0.1,0-0.2-0.1c0-1.3-0.1-2.7-0.1-4c0.1-0.1,0.2-0.2,0.2-0.3c0-0.3,0-0.6,0-0.9c0,0.4,0.6,3,0-2.7
	c0.1,0.8-0.2,0.4,0-0.6c0.1-0.5,0-1.1,0-1.6c0-0.2-0.2-0.3-0.4-0.2c-0.1,0-0.1,0.1-0.2,0.1c-0.3,0.5-0.8,0.2-1.1,0.2
	c-0.5,0-0.6-0.5-0.3-1c0.3-0.4,0.6-0.8,0.9-1.2c0.4-0.8,0.4-1.7,1-2.3c0.1-0.7,0.4-1.3,0.8-1.8c0,0,0-0.2-0.1-0.2
	c0.3-0.4,0.6-0.9,0.9-1.3c0.4-0.1,0.7,0.2,1,0.4c0,0,0.1,0.1,0.1,0.2c-0.4,0.4,0.4,0.4,0.3,0.8c-0.1,0.4,0,0.8,0.3,1.2
	c0.1,0.2,0.1,0.5,0.1,0.8c0,0.2,0.1,0.5,0.2,0.7c0.1,0.3,0.3,0.7,0.3,1c0.1,0.3,0,0.6,0,0.8c0.1,0.5,0.2,1,0.4,1.4
	c0.3,0.6,0.3,1.2,0.5,1.8c0,0.1,0,0.2,0,0.3c-0.1,0.1-0.2,0.2-0.3,0.2c-0.4,0-0.9,0-1-0.4c-0.2-0.4-0.6-0.5-0.8-0.8
	c-0.1-0.1-0.2,0-0.2,0.1c0,0.2,0,0.4,0,0.6c0.3,0.1,0.5,0.1,0.5,0.2c0,0.3-0.2,0.5-0.2,0.8c0,0.7,0,1.3-0.1,1.7
	c-0.1,0.2-0.1,0.5,0,0.7c0,0.9,0.1,0.7,0.1,0.2c0,0,0,0,0,0c0.1,0.2,0.2,0.6,0,0.8c-0.3,0.4-0.1,0.7-0.1,1c0,1.2,0.1,2.3,0.1,3.5
	c0,1.4,0.9,2.4,1.6,3.5c0.3,0.5,0.7,0.8,1.2,0.8c0.5,0,1,0.2,1.5,0.2c0-0.2,0-0.3,0.2-0.2c0.1,0.1,0.3,0.1,0.5,0c0,0,0,0,0,0
	c0.1,0,0.2,0,0.3,0c0.1,0,0.2,0,0.2,0c0.2,0,0.3-0.1,0.4-0.1c0.1,0,0.3,0,0.4-0.1c0.2-0.2,0.4-0.5,0.4-0.6c-0.1-0.1-0.1-0.2,0-0.3
	c0.3-2.9,0.5-18.2,0.6-18.6c0.1-0.3,0.3-0.5,0-0.8c0,0,0-0.1,0-0.2c0-1-0.2-2.1,0-3.1c0.2-0.9,0.2-1.8,0.1-2.7
	c-0.1-0.7-0.2-1.4-0.1-2.1c0-0.3-0.1-0.6,0.2-0.9c0.1-0.2,0-0.6,0-0.8c-0.2-0.6-0.2-0.9,0-1.7c0-0.1,0-0.2,0-0.3
	c-0.2-1.2-0.2-1.8,0-3.2c0-0.1,0-0.1,0-0.2c0-1.7,0.3-3.3,0.2-5c0-0.5-0.1-1.1,0.2-1.6c0.1-0.3,0.2-0.7-0.1-1
	c-0.1-0.2-0.1-0.4-0.1-0.7c0-0.3-0.1-0.5-0.2-0.8c-0.1-0.4-0.2-0.8-0.5-1c-0.4-0.2-0.9-0.5-1.3-0.5c-0.9,0-1.8-0.2-2.6,0.2
	c-0.3,0.1-0.7,0-1.1,0c-0.7,0-1.3,0-2,0c-0.4,0-0.6-0.2-0.9-0.3c-0.1,0-0.2-0.2-0.2-0.3c0-0.5,0-1,0-1.5c0-0.1,0.1-0.1,0.2-0.1
	c0.4-0.1,0.8-0.3,1.2-0.2c0.5,0.1,1,0,1.5,0c0.4,0,0.9,0.1,1.3,0c0.3-0.1,0.7,0.2,1-0.2c0.2,0.2,0.4,0.1,0.6,0c0.2-0.1,0.5,0,0.8,0
	c0.3,0,0.5,0,0.8,0c0.2,0,0.3,0.2,0.7,0.1c0.5-0.3,0.7-0.6,0.7-1.1c0-0.8,0-1.5,0-2.3c0-0.5-0.3-0.8-0.7-1c-0.1-0.1-0.3-0.2-0.4-0.2
	c-1-0.1-1.4-0.9-1.8-1.6c-0.1-0.2-0.3-0.4-0.4-0.6c-0.3-0.5-0.5-1-0.7-1.5c-0.3-0.5-0.4-1-0.5-1.5c-0.2-1.2,0.1-2.4,0.9-3.4
	c0.2-0.3,0.5-0.4,0.8-0.6c0.4-0.3,0.7-0.6,1.1-0.8c0.5-0.3,1-0.5,1.6-0.6C19.9,0.2,20,0.1,20,0c1,0,2,0,3,0c0.1,0.3,0.4,0.4,0.7,0.4
	c1,0.1,1.4,0.8,1.9,1.4c0,0,0,0.1,0,0.1c0.6,0.9,0.9,1.8,0.8,2.9c0,0.2,0,0.5,0,0.7c0,0.2-0.1,0.5,0.1,0.8c0.1,0.1,0,0.3,0.1,0.5
	c0.1,0.3,0.1,0.7,0,0.9c-0.2,0.3,0.1,0.5-0.2,0.8c-0.2,0.2-0.3,0.5-0.5,0.8c-0.8,1-1.3,1.2-2.7,1.6c-0.6,0.2-0.8,0.4-0.8,1
	c0,1.1,0,2.1,0,3.2c0,0.3,0.1,0.3,0.3,0.5c0.4,0.2,0.7,0.4,1.3,0.2c0.5-0.2,1.1-0.1,1.7,0c0.5,0,1.1-0.2,1.6,0.2
	c1-0.1,2.1,0.2,3.1-0.2c0.1,0,0.3,0,0.3,0.1c0.2,0.4,0.9,0.1,1,0.6c0.1,0.2-0.1,0.5,0.2,0.7c-0.2,0.3-0.3,0.5-0.5,0.8
	c-0.1,0.1-0.3,0.1-0.4,0.2c-0.5,0-0.9,0-1.4,0c-0.3,0-0.6-0.1-0.9,0.2c-0.1,0.1-0.5,0-0.6-0.1c-0.2-0.1-0.3-0.1-0.5,0
	c0,0-0.1,0.1-0.2,0c-1-0.4-2-0.1-3-0.2c-0.5,0-0.9,0.1-1.4,0.2c-0.1,0.4-0.6,0.6-0.5,1.1c0,1.7,0,3.3,0,5c0,1.1-0.4,2.3-0.2,3.4
	c-0.4,1.1-0.1,2.2-0.2,3.3c0,0.9,0,1.7,0,2.6c0,0.3-0.1,0.7,0.2,0.9c0.1,0.1,0.1,0.3,0,0.5c-0.1,0.2-0.2,0.4-0.2,0.7
	c0,0.9-0.1,1.9,0,2.8c0,0.4,0.3,0.8,0.1,1.2c-0.3,0.9-0.1,1.8-0.2,2.7c0,0.9,0,1.9,0,2.8c0,0.4,0.2,9.2,0.6,14.7
	c0.8,0.9,0.2,1.1,0.2,2c-0.1,0.1,0.6,0.4,0.4,0.6c-0.2,0.2,0.7,0.6,0.4,0.8c0.1,0.1,0.5,0.6,0.6,0.8c0.3,0.2,0.9-0.2,1.2,0
	c0.7,0.4,1.4,0.1,2.2,0c0.5,0,0.9-0.3,1.2-0.8c0.8-1.1,1.6-2.1,1.6-3.5c0-0.5,0-1.1,0-1.6c-0.1-0.1-0.2-0.2-0.3-0.2
	c-0.7-0.6-1.1-1.5-1.5-2.3c-0.2-0.4-0.4-0.8-0.5-1.2c0.2-0.5,0.6-0.4,0.9-0.4c0.4,0.6,0.8,1.2,1.1,1.8c0-0.4,0-0.6,0.1-0.5
	c0.2,0.3,0.2,0.6,0.1,0.9c0,0,0,0,0,0.1c0-0.7,0-1.8-0.1-3.5c0-0.3-0.1-0.5-0.2-0.8c0,0,0-0.1,0.1-0.1c0-0.1,0-0.3,0.1-0.4
	c0.1-0.2-0.2-0.5,0-0.8c0.1-0.2-0.1-0.4-0.2-0.7c-0.2,0.1-0.4,0.2-0.5,0.3c-0.3,0.2-0.6,0.3-0.9,0.2c-0.7-0.3-0.8-0.5-0.4-1.2
	c0.5-0.8,0.8-1.6,1-2.5c0-0.1,0.2-0.3,0.2-0.5c0-0.1,0-0.4,0.1-0.4c0.4-0.1,0.4-0.5,0.4-0.8c0-0.5,0.4-1,0.6-1.4
	c0.1-0.1,0.2-0.3,0-0.4c0.2-0.3,0.4-0.7,0.6-1c0.9,0.1,1.1,0.3,1.2,1.2c0.1,0.3,0.1,0.7,0.3,1c0.5,0.9,0.7,1.9,1,2.9
	c0.2,0.5,0.3,1,0.5,1.6c0.2,0.5,0.3,1,0.5,1.4c0.1,0.2,0.2,0.5,0.2,0.8c0,0.1-0.1,0.4-0.2,0.4c-0.3,0.1-0.6,0.1-0.8,0.1
	c-0.2,0-0.4-0.2-0.5-0.3c-0.2-0.5-0.7-0.5-1.1-0.8c-0.2-0.1-0.2,0-0.1,0.2c0,0.2,0,0.5,0.1,0.8c0,0.1,0,0.1,0,0.2c0.1,0,0.1,0,0.1,0
	c0,0-0.1,0.1-0.1,0.1c0,0.1,0,0.1,0,0.2c0.2,0.5,0.3,1,0.3,1.5c0,0.4,0.2-1.1,0.2-0.7c0,0.3-0.1,0.5-0.1,0.7c-0.1,0.2-0.1,1.3,0,0
	c0-0.1,0-0.1,0.1,0.2c0,0.3,0,0.6,0,0.9c0,0.3,0,0.6,0,0.9c0,0.1,0.1,0.2,0.2,0.3c0,0.6,0,1.2-0.1,1.7c0.3,0.1,0.7,0.1,1,0.3
	c0.9-0.2,1.8-0.2,2.5-0.8c1.2-0.9,1.7-2.2,1.7-3.7c0-0.5,0-1.1,0-1.6c0.1-1.4-0.4-2.7-0.8-4c-0.4-1.4-1.3-2.6-2-3.8
	c-0.3-0.5-0.7-0.9-0.9-1.5c-0.2-0.5-0.6-0.9-0.9-1.2c0-0.2,0-0.4,0-0.5c-0.6-0.6-0.8-1.4-1.3-2c-0.7-0.7-1-1.6-1.6-2.3
	c-0.6-0.8-1.1-1.7-1.6-2.6c-0.4-0.8-0.9-1.7-1-2.7c0-0.2-0.3-0.5-0.4-0.8c0.2-1.1-0.3-2.3-0.2-3.6c0.2-2,0.8-3.7,2.7-4.7
	c0.8-0.4,1.7-0.9,2.7-0.8c0.4,0,0.8,0,1.2,0c0.3,0,0.7,0.1,1,0.2c0.5,0.2,0.9,0.4,1.4,0.7c0.2,0.2,0.4,0.4,0.6,0.6
	c0.2,0,0.3,0,0.6,0c-0.1-0.2-0.2-0.2-0.3-0.4c0.3-0.4,0.2-0.9,0.2-1.4c0.4,0,0.7,0,1.1,0c0,1.7,0,3.4,0,5.2c-0.3,0-0.7,0-1.1,0
	c-0.2-0.6-0.4-1.1-0.7-1.6c-0.3-0.5-0.8-0.9-1.1-1.2c-0.4-0.1-0.7-0.2-1.1-0.3c-0.3,0-0.7,0-0.9,0c-0.3,0.2-0.5,0.4-0.8,0.4
	c-0.4,0-0.4,0.2-0.6,0.4c-1.2,1.2-1.4,1.7-1.4,3.2c0,2.1,0.5,4,1.6,5.7c0.7,1.3,1.4,2.6,2.4,3.7c0.4,0.5,0.7,1.2,1.1,1.7
	c0.3,0.5,0.6,0.9,0.9,1.4c0.3,0.4,0.5,1,0.9,1.4c0.5,0.6,0.9,1.3,1.2,2c0.5,1,1.2,1.9,1.5,3c0.4,1.1,0.7,2.1,1,3.2
	c0.3,1.3,0.1,2.5,0.1,3.8C41.9,53.8,41.7,54.4,41.4,55z M22.4,9c0.6-0.4,1.4-0.7,1.8-1.5c0.4-1.1,0.9-2.1,0.1-3.2
	c0-0.1-0.1-0.1-0.1-0.1c0.1-0.5-0.4-0.7-0.5-1.1c-0.2-0.4-0.7-0.4-1.1-0.5c-0.2-0.1-0.5-0.2-0.7-0.3c-0.1,0-0.3-0.1-0.4,0
	c-0.9,0.3-1.8,0.5-2.6,1c-0.3,0.2-0.6,0.5-0.8,0.8c-0.3,0.3-0.2,0.7-0.2,1c0,0.2,0,0.3,0,0.5c0,0.3,0,0.6,0,0.9
	c0.1,0.5,0.1,1,0.6,1.2c0.5,0.3,0.9,0.7,1.3,1.1C19.9,8.9,20,8.9,20.1,9c0.3,0.2,0.7,0.2,1.1,0.2C21.6,9.1,22.1,9.1,22.4,9z
	 M12.1,53.6c0-0.1,0.1-0.2,0.1-0.2c0.1-0.3,0.1,0.7,0,1.2c-0.1-0.1-0.1-0.2-0.1-0.2C12.1,54.1,12.1,53.9,12.1,53.6z M12.7,22.2
	c0.6,0.2,1.1,0.7,1.5,1.2c0.7,1,1.4,2.1,2,3.2c0.3,0.6,0.6,1.4,0.7,2.1c0.2,1.5,0,3-0.4,4.5c-0.3,1.2-1.1,2.1-1.8,3
	c-1,1.2-2.4,1.9-3.8,2.6c-0.2,0.1-0.4,0.1-0.5,0.2c-1.6,0.2-3.1,0.4-4.7,0.3c0,0-0.1,0-0.2,0.1c0,0.6,0,1.3,0,2c0,2.4,0,4.8,0,7.2
	c0,1.2-0.1,2.4,0,3.6c0.1,1.2,0.2,2.3,0.4,3.5c0.4,0.7,0.6,1.7,1.7,1.9c0,0.4,0,0.8,0,1.2c-2.5,0-5,0-7.6,0c0-0.5,0-1,0-1.5
	c0.8,0.1,1-0.7,1.4-0.9c0.2-0.5,0.3-0.8,0.4-1.1c-0.1-0.4-0.4-0.8-0.2-1c0.4-0.6,0.3-1.2,0.3-1.8c0-1.6,0-3.2,0-4.8
	c0-0.3,0.1-0.6,0-0.9c-0.4-1-0.4-1.9,0-2.9c0.1-0.2,0.1-0.7-0.1-0.8c-0.3-0.4-0.2-0.8-0.2-1.1c0-3.3,0-6.7,0-10c0-0.3,0-0.6,0.1-0.9
	c0.3-1.2,0.3-1.2,0-2.6c0-0.2-0.1-0.5,0-0.6c0.5-0.6,0.3-1.3,0.3-2c-0.1-0.8-0.1-1.9-1.4-1.9c-0.1,0-0.2-0.1-0.4-0.2
	c0-0.6,0-1.2,0-1.8c0.5,0,1,0,1.5,0c0,0.1,0.1,0.2,0.1,0.2c0.1-0.1,0.1-0.2,0.2-0.2c0.6,0,1.2,0,1.8,0c0.6,0.4,1.5,0.4,2.1,0
	c0.2,0,0.4,0,0.6,0c0,0.1,0.1,0.2,0.1,0.2c0.1-0.1,0.1-0.2,0.2-0.2c1.8,0,3.6,0,5.4,0C12.3,21.9,12.5,22.1,12.7,22.2z M9.3,23.2
	c-0.4,0.7-0.8,0.2-1.2,0c-0.1,0.1-0.2,0.2-0.3,0.2c-0.9,0-1.3,0.7-1.7,1.4c-0.5,1-0.5,2.2-0.7,3.3c-0.1,0.8,0,1.7,0,2.5
	c0,0.4-0.2,0.7-0.2,0.9c0.3,1.3,0.4,2.4-0.1,3.4c0.6,0.7,0.1,1.6,0.4,2.3c0.3,0.1,0.5,0.2,0.7,0.3c0.1-0.1,0.3-0.2,0.4-0.2
	c0.5,0,1-0.1,1.5,0c1.8,0.2,3.7-1.4,4.3-3.3c0.2-0.6,0.2-1.2,0.3-1.8c0.1-0.6,0.3-1.2,0.3-1.8c0-1.1,0-2.2-0.3-3.3
	c-0.3-1.2-0.7-2.3-1.7-3C10.5,23.8,9.9,23.5,9.3,23.2z"/>
<path class="st1" d="M124.6,35.2c0,6,0,12.1,0,18.1c0,1.7-0.2,1.9-2,1.9c-2.7,0-3.1,0.4-3.1-2.9c0.1-3.6,0-7.1,0-10.7
	c0-3.8,0-7.6,0-11.4c0-1.6,0.2-1.8,1.9-1.8c0.1,0,0.2,0,0.3,0c1.1,0.1,2.3,0.2,3.4,0.2c0,1.3,0.3,2.8-0.1,3.9
	C124.6,33.5,124.6,34.3,124.6,35.2z M116.3,33.8c-0.1,0.4-0.2,0.7-0.3,1.1c-0.2,1.2,0,2.7-0.6,3.7c-0.6,1.1-0.1,2.3-0.8,3.4
	c-0.5,0.9,0.2,2.2-0.6,3.2c0.1,2.2-1,4.1-1,6.3c0,0.8-0.6,1.4-0.5,2.3c0,0.5-0.5,0.9-1.2,0.9c-1,0-2,0-3,0c-0.8,0-1.3-0.5-1.2-1.2
	c0.4-2.8-1.3-5.3-1-8c-1-2.7-0.8-5.7-1.9-8.4c-0.2-0.3,0-0.8-0.1-1.2c-0.2-0.9,0.3-1.9-0.4-2.8c-0.5-0.6,0.2-1.7-0.5-2.5
	c-0.3-0.4-0.1-1.3-0.1-2.2c1.3,0,2.5,0,3.7,0c0.9,0,1.3,0.4,1.4,1.3c0.2,2.2,0.1,4.4,0.6,6.5c0.3,1.7,0.4,3.3,0.4,5
	c0,0.1,0,0.2,0,0.2c0.6,0.3,0.2,1.5,1.1,1.3c0.7-0.1,1-0.7,1-1.5c-0.1-0.8,0-1.7,0-2.5c0-1.6,0.5-3.1,0.9-4.6c0.1-0.5,0.1-1,0.1-1.4
	c0.2-1.2,0.3-2.4,0.5-3.5c0.1-0.4,0.6-0.8,1-0.8c1.2-0.1,2.3-0.1,3.5,0c0.2,0,0.5,0.5,0.4,0.7C117.2,30.7,116.7,32.3,116.3,33.8z
	 M98.3,54.1c-1.9,0.4-3.7,1.6-5.8,1.1c-1.6-0.4-3.1-1.1-4.3-2.3c-0.7-0.8-1.9-3.8-1.9-4.9c0-2.2,0-4.5,0-6.7c0-2.1,0-4.3,0-6.4
	c0-2.8,1.6-4.9,3.8-6.3c1.6-1,3.8-1,5.7-0.5c2.2,0.5,2.1,0.7,3.7,2c0.8,0.7,1,1.6,1.3,2.5c0.4,1.2,0.6,2.6,0.6,3.9
	c0.1,3.9,0,7.8,0,11.6C101.4,50.7,100,52.4,98.3,54.1z M96.4,41.6c-0.2-2.5,0.4-5.4-0.5-8.3c-0.3-1-0.7-1.6-1.6-1.9
	c-0.9-0.3-1.6,0.1-2.1,0.9c-0.5,0.7-0.9,1.4-0.9,2.4c0.1,2.9,0,5.8,0,8.7c0,2.2-0.1,4.3,0.4,6.5c0.3,1.3,1.2,1.4,1.9,1.9
	c0.8,0.5,1.4-0.3,1.8-0.9c0.5-0.7,0.9-1.4,0.9-2.4C96.3,46.4,96.4,44.2,96.4,41.6z M83.1,54.7c-0.6,0.1-1.2,0-1.8,0
	c-1.8,0-2.4-0.6-2.6-2.4c-0.3-1.9-0.6-3.8-1.3-5.7c-0.2-0.6-0.1-1.3-0.2-1.9c-0.1-0.6-0.3-1.2-0.6-1.7c-0.1-0.2-0.6-0.2-0.9-0.2
	c-0.2,0-0.5,0.4-0.5,0.6c0,3.2-0.1,6.5,0,9.7c0.1,1.1-0.7,1.3-1.2,1.4c-1,0.2-2.1,0.2-3.2,0.1c-0.5-0.1-0.8-0.7-0.7-1.4
	c0.1-3.6,0-7.3,0-10.9c0-3.2,0-6.4,0-9.7c0-0.9,0.1-1.7-0.4-2.6c-0.7-1.3,0.2-2.1,1.7-2.1c1.7,0,3.4,0,5,0c0.5,0,4.8,1.3,5.1,1.6
	c1.2,1.1,2.1,2.4,2.2,4.1c0.1,1.2,0,2.3,0,3.5c0.1,1.4-0.3,2.6-1.4,3.4c-1.7,1.3-2.3,2.7-0.8,4.5c-0.1,1.5,1.1,2.7,1.2,4.2
	c0.1,1,0.7,2,1.1,3c0.2,0.4,0.3,0.9,0.4,1.3C84.3,54.3,83.8,54.6,83.1,54.7z M78.7,33.7c0-0.8-0.9-1.7-1.7-1.7c-0.6,0-1.1,0-1.7,0
	c0,2.4,0,4.6,0,6.9c0.5,0,0.7,0,1,0c1.8-0.1,2.5-0.7,2.5-2.5C78.7,35.5,78.8,34.6,78.7,33.7z M67.2,39.8c-0.4,1.2-1.1,2-2,2.5
	c-1.1,0.6-2.2,1.2-3.6,1.1c-1.1-0.1-1.5,0.4-1.5,1.4c0,0.7,0.4,1.4,0.4,2c0,1.4,0.5,2.8-0.3,4.3c-0.4,0.8-0.1,1.9-0.1,3.2
	c-1.4,0-2.7,0-3.9,0c-0.8,0-1.1-0.6-0.9-1.5c0.1-0.5,0.3-1.1,0.3-1.6c0-5.4,0-10.7,0-16.1c0-1.2-0.4-2.3-0.5-3.5
	c-0.1-1.1,0-2.3,0-3.6c2.6,0,5.1,0,7.5,0c1.7,0,4,1.8,4.5,3.5c0.3,1,0.7,1.9,0.5,3C67.4,36.3,67.8,38,67.2,39.8z M61.9,32
	c-0.3-0.2-0.8-0.6-1-0.5c-0.4,0.2-0.7,0.7-0.8,1.1c-0.1,1,0,2,0,3c0,1.1,0,2.1,0,3.2c0,0.6,1,1,1.6,0.8c0.6-0.3,1.4-1.3,1.4-1.9
	c0-1-0.1-2,0-3C63.3,33.5,62.8,32.6,61.9,32z"/>
</svg>
