<?xml version="1.0" encoding="utf-8"?>
<!-- Generator: Adobe Illustrator 21.0.0, SVG Export Plug-In . SVG Version: 6.00 Build 0)  -->
<svg version="1.1" id="Layer_1" xmlns="http://www.w3.org/2000/svg" xmlns:xlink="http://www.w3.org/1999/xlink" x="0px" y="0px"
	 viewBox="0 0 36 36" style="enable-background:new 0 0 36 36;" xml:space="preserve">
<style type="text/css">
	.st0{fill:#A5A5A5;}
</style>
<path class="st0" d="M19.4,18l10.3,10.3c0.4,0.4,0.4,1,0,1.4s-1,0.4-1.4,0L18,19.4L7.7,29.7c-0.4,0.4-1,0.4-1.4,0h0
	c-0.4-0.4-0.4-1,0-1.4L16.6,18L6.3,7.7c-0.4-0.4-0.4-1,0-1.4c0.4-0.4,1-0.4,1.4,0L18,16.6L28.3,6.3c0.4-0.4,1-0.4,1.4,0v0
	c0.4,0.4,0.4,1,0,1.4L19.4,18z"/>
</svg>
