<?xml version="1.0" encoding="utf-8"?>
<!-- Generator: Adobe Illustrator 21.0.0, SVG Export Plug-In . SVG Version: 6.00 Build 0)  -->
<svg version="1.1" id="Layer_1" xmlns="http://www.w3.org/2000/svg" xmlns:xlink="http://www.w3.org/1999/xlink" x="0px" y="0px"
	 viewBox="0 0 36 36" style="enable-background:new 0 0 36 36;" xml:space="preserve">
<style type="text/css">
	.st0{fill:#000000;}
</style>
<path class="st0" d="M28.4,24.6L27.5,20c0-0.2-0.2-0.3-0.3-0.4c-0.2-0.1-0.4-0.1-0.5,0L22.7,22c-0.2,0.1-0.3,0.4-0.3,0.7
	c0.1,0.3,0.3,0.4,0.6,0.4l1.5-0.1c-1.5,2-3.7,2.8-6.2,3V13h1.3c0.2,0.2,0.5,0.2,0.7,0.2c0.7,0,1.2-0.6,1.2-1.2
	c0-0.7-0.6-1.2-1.2-1.2c-0.3,0-0.5,0.1-0.7,0.2h-1.3V9.2c0.7-0.5,1.2-1.3,1.2-2.2c0-1.5-1.2-2.7-2.7-2.7c-1.5,0-2.7,1.2-2.7,2.7
	c0,0.9,0.5,1.8,1.2,2.2V11h-1.3c-0.2-0.2-0.5-0.2-0.7-0.2c-0.7,0-1.2,0.6-1.2,1.2c0,0.7,0.6,1.2,1.2,1.2c0.3,0,0.5-0.1,0.7-0.2h1.3
	v13c-2.5-0.2-4.8-1-6.2-3l1.5,0.1c0.3,0,0.5-0.1,0.6-0.4c0.1-0.3,0-0.5-0.3-0.7l-3.9-2.4c-0.2-0.1-0.4-0.1-0.5,0
	c-0.2,0.1-0.3,0.2-0.3,0.4l-0.9,4.6c0,0.3,0.1,0.5,0.3,0.6c0.2,0.1,0.5,0,0.7-0.2l0.9-1.2c1.8,2.9,4.6,5.4,7.9,6l1.2,1.2
	c0.2,0.2,0.6,0.2,0.8,0l1.2-1.2c3.3-0.6,6.1-3.1,7.9-6l0.9,1.2c0.2,0.2,0.5,0.3,0.7,0.2C28.3,25.1,28.4,24.8,28.4,24.6z M16.9,6.2
	c0.4,0,0.7,0.3,0.7,0.7c0,0.4-0.3,0.7-0.7,0.7c-0.4,0-0.7-0.3-0.7-0.7C16.2,6.6,16.5,6.2,16.9,6.2z"/>
</svg>
