<?xml version="1.0" encoding="utf-8"?>
<!-- Generator: Adobe Illustrator 21.0.0, SVG Export Plug-In . SVG Version: 6.00 Build 0)  -->
<svg version="1.1" id="Layer_1" xmlns="http://www.w3.org/2000/svg" xmlns:xlink="http://www.w3.org/1999/xlink" x="0px" y="0px"
	 viewBox="0 0 36 36" style="enable-background:new 0 0 36 36;" xml:space="preserve">
<g>
	<path d="M4.1,16.8l3,0.4c0.5,0.1,0.8,0.5,0.9,0.9C8,19.6,8.4,21,9,22.3c1.2,2.4,3.4,4.1,5.8,4.9c0.4,0.1,0.7,0.6,0.7,1.1l-0.4,3
		c-0.1,0.6-0.7,1-1.3,0.8c-3.8-1.1-7.2-3.7-9.2-7.6C3.5,22.4,3,20.1,3,17.8C3,17.2,3.5,16.7,4.1,16.8z M31.1,32
		c-0.8,1-1.7,1.2-2.3,1.2c-1.9,0-3.5-1.8-3.9-2.2c-0.1,0-0.1,0.1-0.2,0.1c-2.2,1.1-4.5,1.6-6.7,1.6c-0.6,0-1.1-0.5-1-1.1l0.4-3
		c0.1-0.5,0.5-0.8,0.9-0.9c1.4-0.1,2.8-0.4,4.1-1.1c2.4-1.2,4.1-3.4,4.9-5.8c0.1-0.4,0.6-0.7,1.1-0.7l3,0.4c0.6,0.1,1,0.7,0.8,1.3
		c-0.1,0.4-0.3,0.9-0.4,1.3C32.1,23.5,34.8,27.1,31.1,32z M30.9,25.7L27,30.3c0.5,0.5,1.2,0.9,1.7,0.9c0.1,0,0.1,0,0.2,0
		c0.2,0,0.3-0.2,0.6-0.4C31.1,28.6,31.2,26.8,30.9,25.7z M32.9,17.7c0,0.6-0.5,1.1-1.1,1l-3-0.4c-0.5-0.1-0.8-0.5-0.9-0.9
		c-0.1-1.4-0.4-2.8-1.1-4.1c-1.2-2.4-3.4-4.1-5.8-4.9c-0.4-0.1-0.7-0.6-0.7-1.1l0.4-3c0.1-0.6,0.7-1,1.3-0.8
		c3.8,1.1,7.2,3.7,9.2,7.6C32.4,13.1,32.9,15.4,32.9,17.7z M5.4,4.6c0.8-1,1.7-1.2,2.3-1.2c1.2,0,2.2,0.7,3,1.3
		c0.1-0.1,0.3-0.2,0.4-0.2c2.2-1.1,4.5-1.6,6.7-1.6c0.6,0,1.1,0.5,1,1.1l-0.4,3c-0.1,0.5-0.5,0.8-0.9,0.9c-1.4,0.1-2.8,0.4-4.1,1.1
		c-2.4,1.2-4.1,3.4-4.9,5.8c-0.1,0.5-0.6,0.7-1.1,0.7l-3-0.4c-0.6-0.1-1-0.7-0.8-1.3c0.1-0.4,0.3-0.9,0.4-1.3
		C3.4,10.9,2.8,8.1,5.4,4.6z M8.9,5.8C8.5,5.5,8.1,5.3,7.8,5.3c-0.1,0-0.1,0-0.2,0C7.4,5.4,7.3,5.5,7,5.8C6,7.2,5.6,8.4,5.5,9.4
		C6.4,8,7.6,6.8,8.9,5.8z"/>
</g>
</svg>
