<?xml version="1.0" encoding="utf-8"?>
<!-- Generator: Adobe Illustrator 21.0.0, SVG Export Plug-In . SVG Version: 6.00 Build 0)  -->
<svg version="1.1" id="Layer_1" xmlns="http://www.w3.org/2000/svg" xmlns:xlink="http://www.w3.org/1999/xlink" x="0px" y="0px"
	 viewBox="0 0 36 36" style="enable-background:new 0 0 36 36;" xml:space="preserve">
<style type="text/css">
	.st0{fill:#FFFFFF;}
</style>
<path class="st0" d="M29,19H7c-0.6,0-1-0.4-1-1c0-0.6,0.4-1,1-1h22c0.6,0,1,0.4,1,1C30,18.6,29.6,19,29,19z M29,8H7C6.4,8,6,7.6,6,7
	c0-0.6,0.4-1,1-1h22c0.6,0,1,0.4,1,1C30,7.6,29.6,8,29,8z M7,28h22c0.6,0,1,0.4,1,1c0,0.6-0.4,1-1,1H7c-0.6,0-1-0.4-1-1
	C6,28.4,6.4,28,7,28z"/>
</svg>
