<?xml version="1.0" encoding="utf-8"?>
<!-- Generator: Adobe Illustrator 21.0.0, SVG Export Plug-In . SVG Version: 6.00 Build 0)  -->
<svg version="1.1" id="Layer_1" xmlns="http://www.w3.org/2000/svg" xmlns:xlink="http://www.w3.org/1999/xlink" x="0px" y="0px"
	 viewBox="0 0 23 36" style="enable-background:new 0 0 23 36;" xml:space="preserve">
<g id="Layer_3">
	<path d="M21.2,36H1.8c-1,0-1.8-0.8-1.8-1.8V1.8C0,0.8,0.8,0,1.8,0h19.4c1,0,1.8,0.8,1.8,1.8v32.4C23,35.2,22.2,36,21.2,36z
		 M11.5,34c0.8,0,1.5-0.7,1.5-1.5S12.3,31,11.5,31S10,31.7,10,32.5S10.7,34,11.5,34z M13.5,2h-4C9.2,2,9,2.2,9,2.5S9.2,3,9.5,3h4
		C13.8,3,14,2.8,14,2.5S13.8,2,13.5,2z M20,5H3v24h17V5z"/>
</g>
</svg>
